{"title":"Golden Winter 2012 DVD9rip English Klam","uid":7813007,"size":1616388769,"categoryP":"video","categoryS":"movies","magnet":"?xt=urn:btih:9d127c836486d65e6cf3b1b5c150862c2b5a4a33&amp;dn=Golden+Winter+2012+DVD9rip+English+Klam&amp;tr=udp%3A%2F%2Ftracker.openbittorrent.com%3A80&amp;tr=udp%3A%2F%2Fopen.demonii.com%3A1337&amp;tr=udp%3A%2F%2Ftracker.coppersurfer.tk%3A6969&amp;tr=udp%3A%2F%2Fexodus.desync.com%3A6969","seeders":0,"leechers":0,"uploader":"Klambake","files":-1,"time":1352579825,"description":"[img] http://img38.imageshack.us/img38/9348/86314.jpg[/img]\n\nWith: Jason Brooks, Joe Hursley and Clyde Tull\n\nJack is een jongetje dat weggelopen is van huis. Hij raakt bevriend met Rory, een dakloze Golden Retriever. Samen met Rory weet Jack een bankoverval te stoppen. Net voor Kerstmis worden de twee geadopteerd door een aardig gezin.\n\nJack is a boy who has run away from home. He befriends Rory, a homeless Golden Retriever. Along with Rory knows Jack to stop a bank robbery. Just before Christmas....\n\n------------------------ Dutch Friends ------------------------\n---------------------------------------------------------------\n- Bezoek ook eens mijn vrienden op: &lt;a href=&quot; http://www.Film-Test.nl&quot; rel=&quot;nofollow&quot; target=&quot;_NEW&quot;&gt; http://www.Film-Test.nl&lt;/a&gt; --\n----- voor mijn Nederlandse Sync. ondertitels ---- en meer ----\n------- http://www.Film-Test.nl ---- Over Films en meer -------\n---------------------------------------------------------------\n\nGeneral:\n\nComplete name                    : Golden WinterGolden Winter.avi\nFormat                           : AVI\nFormat/Info                      : Audio Video Interleave\nFile size                        : 1.51 GiB\nDuration                         : 1h 25mn\nOverall bit rate                 : 2 522 Kbps\n\nVideo:\n\nFormat                           : MPEG-4 Visual\nFormat profile                   : Simple@L3\nFormat settings, BVOP            : No\nFormat settings, QPel            : No\nFormat settings, GMC             : No warppoints\nFormat settings, Matrix          : Default (H.263)\nCodec ID                         : XVID\nCodec ID/Hint                    : XviD\nDuration                         : 1h 25mn\nBit rate                         : 2 063 Kbps\nWidth                            : 704 pixels\nHeight                           : 396 pixels\nDisplay aspect ratio             : 16:9\nFrame rate                       : 25.000 fps\nColor space                      : YUV\nChroma subsampling               : 4:2:0\nBit depth                        : 8 bits\nScan type                        : Progressive\nCompression mode                 : Lossy\nBits/(Pixel*Frame)               : 0.296\nStream size                      : 1.23 GiB (82%)\nWriting library                  : XviD 1.1.2 (UTC 2006-11-01)\n\nAudio:\n\nFormat                           : AC-3\nFormat/Info                      : Audio Coding 3\nMode extension                   : CM (complete main)\nCodec ID                         : 2000\nDuration                         : 1h 25mn\nBit rate mode                    : Constant\nBit rate                         : 448 Kbps\nChannel(s)                       : 6 channels\nChannel positions                : Front: L C R, Side: L R, LFE\nSampling rate                    : 48.0 KHz\nBit depth                        : 16 bits\nCompression mode                 : Lossy\nStream size                      : 274 MiB (18%)\nAlignment                        : Aligned on interleaves\nInterleave, duration             : 32 ms (0.80 video frame)\nInterleave, preload duration     : 64 ms","torrent":{"xt":"urn:btih:9d127c836486d65e6cf3b1b5c150862c2b5a4a33","amp;dn":"Golden+Winter+2012+DVD9rip+English+Klam","amp;tr":["udp%3A%2F%2Ftracker.openbittorrent.com%3A80","udp%3A%2F%2Fopen.demonii.com%3A1337","udp%3A%2F%2Ftracker.coppersurfer.tk%3A6969","udp%3A%2F%2Fexodus.desync.com%3A6969"],"infoHash":"9d127c836486d65e6cf3b1b5c150862c2b5a4a33","infoHashBuffer":{"type":"Buffer","data":[157,18,124,131,100,134,214,94,108,243,177,181,193,80,134,44,43,90,74,51]},"announce":[],"urlList":[]}}